<mxfile host="app.diagrams.net" modified="2023-06-25T06:15:53.454Z" agent="Mozilla/5.0 (X11; Linux x86_64) AppleWebKit/537.36 (KHTML, like Gecko) Chrome/114.0.0.0 Safari/537.36" etag="8ud9RwP09Hbw-F2oKiPx" version="21.5.0" type="github">
  <diagram name="Page-1" id="fEGx-Ri0PqNCiq2WfJy5">
    <mxGraphModel dx="1509" dy="2055" grid="1" gridSize="10" guides="1" tooltips="1" connect="1" arrows="1" fold="1" page="1" pageScale="1" pageWidth="850" pageHeight="1100" math="0" shadow="0">
      <root>
        <mxCell id="0" />
        <mxCell id="1" parent="0" />
        <mxCell id="RfhdUQPL6JpXIDnolCRE-15" style="edgeStyle=orthogonalEdgeStyle;rounded=0;orthogonalLoop=1;jettySize=auto;html=1;entryX=1.004;entryY=0.175;entryDx=0;entryDy=0;jumpStyle=gap;entryPerimeter=0;" edge="1" parent="1" source="KWsWyQxtymJVeOGBYL6s-7" target="KWsWyQxtymJVeOGBYL6s-12">
          <mxGeometry relative="1" as="geometry">
            <Array as="points">
              <mxPoint x="340" y="250" />
              <mxPoint x="340" y="430" />
            </Array>
          </mxGeometry>
        </mxCell>
        <mxCell id="RfhdUQPL6JpXIDnolCRE-17" style="edgeStyle=orthogonalEdgeStyle;rounded=0;orthogonalLoop=1;jettySize=auto;html=1;exitX=1;exitY=0.25;exitDx=0;exitDy=0;entryX=0.092;entryY=1.014;entryDx=0;entryDy=0;jumpStyle=gap;entryPerimeter=0;" edge="1" parent="1" source="KWsWyQxtymJVeOGBYL6s-7" target="KWsWyQxtymJVeOGBYL6s-8">
          <mxGeometry relative="1" as="geometry">
            <Array as="points">
              <mxPoint x="260" y="250" />
              <mxPoint x="400" y="250" />
              <mxPoint x="400" />
              <mxPoint x="401" />
              <mxPoint x="401" y="-19" />
            </Array>
          </mxGeometry>
        </mxCell>
        <mxCell id="RfhdUQPL6JpXIDnolCRE-19" style="edgeStyle=orthogonalEdgeStyle;rounded=0;orthogonalLoop=1;jettySize=auto;html=1;entryX=0;entryY=0.25;entryDx=0;entryDy=0;jumpStyle=gap;" edge="1" parent="1" source="KWsWyQxtymJVeOGBYL6s-7" target="KWsWyQxtymJVeOGBYL6s-17">
          <mxGeometry relative="1" as="geometry">
            <Array as="points">
              <mxPoint x="340" y="250" />
              <mxPoint x="340" y="140" />
            </Array>
          </mxGeometry>
        </mxCell>
        <mxCell id="KWsWyQxtymJVeOGBYL6s-7" value="Join" style="rounded=1;whiteSpace=wrap;html=1;fontSize=16;fontStyle=0;fillColor=#0050ef;fontColor=#ffffff;strokeColor=#001DBC;" parent="1" vertex="1">
          <mxGeometry x="140" y="240" width="120" height="60" as="geometry" />
        </mxCell>
        <mxCell id="RfhdUQPL6JpXIDnolCRE-8" style="edgeStyle=orthogonalEdgeStyle;rounded=0;orthogonalLoop=1;jettySize=auto;html=1;entryX=0;entryY=0.5;entryDx=0;entryDy=0;jumpStyle=gap;" edge="1" parent="1" source="KWsWyQxtymJVeOGBYL6s-8" target="KWsWyQxtymJVeOGBYL6s-9">
          <mxGeometry relative="1" as="geometry">
            <Array as="points">
              <mxPoint x="30" y="-60" />
              <mxPoint x="30" y="150" />
            </Array>
          </mxGeometry>
        </mxCell>
        <mxCell id="RfhdUQPL6JpXIDnolCRE-9" style="edgeStyle=orthogonalEdgeStyle;rounded=0;orthogonalLoop=1;jettySize=auto;html=1;entryX=0;entryY=0.5;entryDx=0;entryDy=0;jumpStyle=gap;" edge="1" parent="1" source="KWsWyQxtymJVeOGBYL6s-8" target="KWsWyQxtymJVeOGBYL6s-7">
          <mxGeometry relative="1" as="geometry">
            <Array as="points">
              <mxPoint x="30" y="-60" />
              <mxPoint x="30" y="250" />
            </Array>
          </mxGeometry>
        </mxCell>
        <mxCell id="RfhdUQPL6JpXIDnolCRE-10" style="edgeStyle=orthogonalEdgeStyle;rounded=0;orthogonalLoop=1;jettySize=auto;html=1;entryX=0;entryY=0.5;entryDx=0;entryDy=0;jumpStyle=gap;" edge="1" parent="1">
          <mxGeometry relative="1" as="geometry">
            <mxPoint x="330" y="-60" as="sourcePoint" />
            <mxPoint x="140" y="350" as="targetPoint" />
            <Array as="points">
              <mxPoint x="30" y="-60" />
              <mxPoint x="30" y="350" />
            </Array>
          </mxGeometry>
        </mxCell>
        <mxCell id="RfhdUQPL6JpXIDnolCRE-11" style="edgeStyle=orthogonalEdgeStyle;rounded=0;orthogonalLoop=1;jettySize=auto;html=1;entryX=1;entryY=0.5;entryDx=0;entryDy=0;jumpStyle=gap;" edge="1" parent="1" source="KWsWyQxtymJVeOGBYL6s-8" target="KWsWyQxtymJVeOGBYL6s-17">
          <mxGeometry relative="1" as="geometry">
            <Array as="points">
              <mxPoint x="830" y="-60" />
              <mxPoint x="830" y="150" />
            </Array>
          </mxGeometry>
        </mxCell>
        <mxCell id="RfhdUQPL6JpXIDnolCRE-12" style="edgeStyle=orthogonalEdgeStyle;rounded=0;orthogonalLoop=1;jettySize=auto;html=1;entryX=1;entryY=0.5;entryDx=0;entryDy=0;jumpStyle=gap;" edge="1" parent="1" source="KWsWyQxtymJVeOGBYL6s-8" target="KWsWyQxtymJVeOGBYL6s-16">
          <mxGeometry relative="1" as="geometry">
            <Array as="points">
              <mxPoint x="830" y="-60" />
              <mxPoint x="830" y="220" />
            </Array>
          </mxGeometry>
        </mxCell>
        <mxCell id="RfhdUQPL6JpXIDnolCRE-13" style="edgeStyle=orthogonalEdgeStyle;rounded=0;orthogonalLoop=1;jettySize=auto;html=1;entryX=1;entryY=0.5;entryDx=0;entryDy=0;jumpStyle=gap;" edge="1" parent="1">
          <mxGeometry relative="1" as="geometry">
            <mxPoint x="470" y="-59.95652173913027" as="sourcePoint" />
            <mxPoint x="740" y="290" as="targetPoint" />
            <Array as="points">
              <mxPoint x="830" y="-60" />
              <mxPoint x="830" y="290" />
            </Array>
          </mxGeometry>
        </mxCell>
        <mxCell id="RfhdUQPL6JpXIDnolCRE-14" style="edgeStyle=orthogonalEdgeStyle;rounded=0;orthogonalLoop=1;jettySize=auto;html=1;entryX=0;entryY=0.5;entryDx=0;entryDy=0;jumpStyle=gap;" edge="1" parent="1" source="KWsWyQxtymJVeOGBYL6s-8" target="KWsWyQxtymJVeOGBYL6s-12">
          <mxGeometry relative="1" as="geometry">
            <Array as="points">
              <mxPoint x="30" y="-60" />
              <mxPoint x="30" y="450" />
            </Array>
          </mxGeometry>
        </mxCell>
        <mxCell id="KWsWyQxtymJVeOGBYL6s-8" value="Home&lt;br&gt;Assistant" style="rounded=1;whiteSpace=wrap;html=1;fontSize=16;fontStyle=0;fillColor=#0050ef;fontColor=#ffffff;strokeColor=#001DBC;" parent="1" vertex="1">
          <mxGeometry x="390" y="-80" width="120" height="60" as="geometry" />
        </mxCell>
        <mxCell id="RfhdUQPL6JpXIDnolCRE-3" style="edgeStyle=orthogonalEdgeStyle;rounded=0;orthogonalLoop=1;jettySize=auto;html=1;entryX=0;entryY=0.5;entryDx=0;entryDy=0;jumpStyle=gap;" edge="1" parent="1" source="KWsWyQxtymJVeOGBYL6s-9" target="KWsWyQxtymJVeOGBYL6s-21">
          <mxGeometry relative="1" as="geometry">
            <Array as="points">
              <mxPoint x="440" y="150" />
              <mxPoint x="440" y="690" />
            </Array>
          </mxGeometry>
        </mxCell>
        <mxCell id="RfhdUQPL6JpXIDnolCRE-4" style="edgeStyle=orthogonalEdgeStyle;rounded=0;orthogonalLoop=1;jettySize=auto;html=1;entryX=0.005;entryY=0.756;entryDx=0;entryDy=0;jumpStyle=gap;entryPerimeter=0;" edge="1" parent="1">
          <mxGeometry relative="1" as="geometry">
            <mxPoint x="290" y="150.0526315789475" as="sourcePoint" />
            <mxPoint x="630.5999999999999" y="370.24000000000024" as="targetPoint" />
            <Array as="points">
              <mxPoint x="450" y="150" />
              <mxPoint x="450" y="370" />
            </Array>
          </mxGeometry>
        </mxCell>
        <mxCell id="KWsWyQxtymJVeOGBYL6s-9" value="SmartThings" style="rounded=1;whiteSpace=wrap;html=1;fontSize=16;fontStyle=0;fillColor=#0050ef;fontColor=#ffffff;strokeColor=#001DBC;" parent="1" vertex="1">
          <mxGeometry x="140" y="100" width="120" height="60" as="geometry" />
        </mxCell>
        <mxCell id="KWsWyQxtymJVeOGBYL6s-10" value="" style="rounded=1;whiteSpace=wrap;html=1;fontSize=16;fontStyle=0" parent="1" vertex="1">
          <mxGeometry x="130" y="780" width="120" height="60" as="geometry" />
        </mxCell>
        <mxCell id="RfhdUQPL6JpXIDnolCRE-18" style="edgeStyle=orthogonalEdgeStyle;rounded=0;orthogonalLoop=1;jettySize=auto;html=1;exitX=1;exitY=0.25;exitDx=0;exitDy=0;jumpStyle=gap;entryX=0.162;entryY=1.013;entryDx=0;entryDy=0;entryPerimeter=0;dashed=1;" edge="1" parent="1" source="KWsWyQxtymJVeOGBYL6s-11" target="KWsWyQxtymJVeOGBYL6s-8">
          <mxGeometry relative="1" as="geometry">
            <mxPoint x="390" y="-10" as="targetPoint" />
            <Array as="points">
              <mxPoint x="260" y="335" />
              <mxPoint x="410" y="335" />
              <mxPoint x="410" y="20" />
            </Array>
          </mxGeometry>
        </mxCell>
        <mxCell id="KWsWyQxtymJVeOGBYL6s-11" value="IR" style="rounded=1;whiteSpace=wrap;html=1;fontSize=16;fontStyle=0;fillColor=#0050ef;fontColor=#ffffff;strokeColor=#001DBC;" parent="1" vertex="1">
          <mxGeometry x="140" y="520" width="120" height="60" as="geometry" />
        </mxCell>
        <mxCell id="KWsWyQxtymJVeOGBYL6s-12" value="Tasker" style="rounded=1;whiteSpace=wrap;html=1;fontSize=16;fontStyle=0;fillColor=#0050ef;fontColor=#ffffff;strokeColor=#001DBC;" parent="1" vertex="1">
          <mxGeometry x="140" y="380" width="120" height="60" as="geometry" />
        </mxCell>
        <mxCell id="KWsWyQxtymJVeOGBYL6s-13" value="" style="rounded=1;whiteSpace=wrap;html=1;fontSize=16;fontStyle=0" parent="1" vertex="1">
          <mxGeometry x="130" y="880" width="120" height="60" as="geometry" />
        </mxCell>
        <mxCell id="KWsWyQxtymJVeOGBYL6s-14" value="Controllers" style="text;html=1;strokeColor=none;fillColor=none;align=center;verticalAlign=middle;whiteSpace=wrap;rounded=0;fontStyle=1;fontSize=20;" parent="1" vertex="1">
          <mxGeometry x="170" y="60" width="60" height="30" as="geometry" />
        </mxCell>
        <mxCell id="RfhdUQPL6JpXIDnolCRE-20" style="edgeStyle=orthogonalEdgeStyle;rounded=0;orthogonalLoop=1;jettySize=auto;html=1;entryX=0.748;entryY=1.007;entryDx=0;entryDy=0;entryPerimeter=0;" edge="1" parent="1" source="KWsWyQxtymJVeOGBYL6s-15" target="KWsWyQxtymJVeOGBYL6s-8">
          <mxGeometry relative="1" as="geometry">
            <Array as="points">
              <mxPoint x="480" y="290" />
            </Array>
          </mxGeometry>
        </mxCell>
        <mxCell id="KWsWyQxtymJVeOGBYL6s-15" value="Watch" style="rounded=1;whiteSpace=wrap;html=1;fontSize=16;fontStyle=0;fillColor=#60a917;fontColor=#ffffff;strokeColor=#2D7600;" parent="1" vertex="1">
          <mxGeometry x="600" y="270" width="120" height="40" as="geometry" />
        </mxCell>
        <mxCell id="RfhdUQPL6JpXIDnolCRE-22" style="edgeStyle=orthogonalEdgeStyle;rounded=0;orthogonalLoop=1;jettySize=auto;html=1;entryX=0.835;entryY=1.011;entryDx=0;entryDy=0;entryPerimeter=0;" edge="1" parent="1" source="KWsWyQxtymJVeOGBYL6s-16" target="KWsWyQxtymJVeOGBYL6s-8">
          <mxGeometry relative="1" as="geometry">
            <mxPoint x="420" y="-10" as="targetPoint" />
          </mxGeometry>
        </mxCell>
        <mxCell id="KWsWyQxtymJVeOGBYL6s-16" value="Phone" style="rounded=1;whiteSpace=wrap;html=1;fontSize=16;fontStyle=0;fillColor=#60a917;fontColor=#ffffff;strokeColor=#2D7600;" parent="1" vertex="1">
          <mxGeometry x="600" y="200" width="120" height="40" as="geometry" />
        </mxCell>
        <mxCell id="RfhdUQPL6JpXIDnolCRE-21" style="edgeStyle=orthogonalEdgeStyle;rounded=0;orthogonalLoop=1;jettySize=auto;html=1;entryX=0.918;entryY=1.003;entryDx=0;entryDy=0;entryPerimeter=0;dashed=1;" edge="1" parent="1" source="KWsWyQxtymJVeOGBYL6s-17" target="KWsWyQxtymJVeOGBYL6s-8">
          <mxGeometry relative="1" as="geometry">
            <Array as="points">
              <mxPoint x="500" y="150" />
            </Array>
          </mxGeometry>
        </mxCell>
        <mxCell id="KWsWyQxtymJVeOGBYL6s-17" value="Laptop&lt;br&gt;" style="rounded=1;whiteSpace=wrap;html=1;fontSize=16;fontStyle=0;fillColor=#60a917;fontColor=#ffffff;strokeColor=#2D7600;" parent="1" vertex="1">
          <mxGeometry x="600" y="130" width="120" height="40" as="geometry" />
        </mxCell>
        <mxCell id="KWsWyQxtymJVeOGBYL6s-18" value="Soundbar" style="rounded=1;whiteSpace=wrap;html=1;fontSize=16;fontStyle=0;fillColor=#008a00;fontColor=#ffffff;strokeColor=#005700;" parent="1" vertex="1">
          <mxGeometry x="600" y="600" width="120" height="40" as="geometry" />
        </mxCell>
        <mxCell id="RfhdUQPL6JpXIDnolCRE-23" style="edgeStyle=orthogonalEdgeStyle;rounded=0;orthogonalLoop=1;jettySize=auto;html=1;entryX=1.002;entryY=0.675;entryDx=0;entryDy=0;entryPerimeter=0;" edge="1" parent="1" target="KWsWyQxtymJVeOGBYL6s-9">
          <mxGeometry relative="1" as="geometry">
            <mxPoint x="600" y="350.0526315789475" as="sourcePoint" />
            <mxPoint x="260" y="140" as="targetPoint" />
            <Array as="points">
              <mxPoint x="460" y="350" />
              <mxPoint x="460" y="160" />
              <mxPoint x="260" y="160" />
            </Array>
          </mxGeometry>
        </mxCell>
        <mxCell id="KWsWyQxtymJVeOGBYL6s-19" value="TV" style="rounded=1;whiteSpace=wrap;html=1;fontSize=16;fontStyle=0;fillColor=#60a917;fontColor=#ffffff;strokeColor=#2D7600;" parent="1" vertex="1">
          <mxGeometry x="600" y="340" width="120" height="40" as="geometry" />
        </mxCell>
        <mxCell id="KWsWyQxtymJVeOGBYL6s-20" value="Buds" style="rounded=1;whiteSpace=wrap;html=1;fontSize=16;fontStyle=0;fillColor=#008a00;fontColor=#ffffff;strokeColor=#005700;" parent="1" vertex="1">
          <mxGeometry x="600" y="530" width="120" height="40" as="geometry" />
        </mxCell>
        <mxCell id="KWsWyQxtymJVeOGBYL6s-21" value="Lights &amp;amp; Plugs" style="rounded=1;whiteSpace=wrap;html=1;fontSize=16;fontStyle=0;fillColor=#008a00;fontColor=#ffffff;strokeColor=#005700;" parent="1" vertex="1">
          <mxGeometry x="600" y="670" width="120" height="40" as="geometry" />
        </mxCell>
        <mxCell id="KWsWyQxtymJVeOGBYL6s-22" value="Controller Devices" style="text;html=1;strokeColor=none;fillColor=none;align=center;verticalAlign=middle;whiteSpace=wrap;rounded=0;fontStyle=1;fontSize=20;" parent="1" vertex="1">
          <mxGeometry x="630" y="70" width="60" height="30" as="geometry" />
        </mxCell>
        <mxCell id="KWsWyQxtymJVeOGBYL6s-24" value="" style="rounded=1;whiteSpace=wrap;html=1;fontSize=16;fontStyle=0" parent="1" vertex="1">
          <mxGeometry x="550" y="770" width="120" height="40" as="geometry" />
        </mxCell>
        <mxCell id="KWsWyQxtymJVeOGBYL6s-25" value="" style="rounded=1;whiteSpace=wrap;html=1;fontSize=16;fontStyle=0" parent="1" vertex="1">
          <mxGeometry x="550" y="840" width="120" height="40" as="geometry" />
        </mxCell>
        <mxCell id="KWsWyQxtymJVeOGBYL6s-26" value="" style="rounded=1;whiteSpace=wrap;html=1;fontSize=16;fontStyle=0" parent="1" vertex="1">
          <mxGeometry x="550" y="910" width="120" height="40" as="geometry" />
        </mxCell>
        <mxCell id="RfhdUQPL6JpXIDnolCRE-5" value="Other Devices" style="text;html=1;strokeColor=none;fillColor=none;align=center;verticalAlign=middle;whiteSpace=wrap;rounded=0;fontStyle=1;fontSize=20;" vertex="1" parent="1">
          <mxGeometry x="630" y="470" width="60" height="30" as="geometry" />
        </mxCell>
      </root>
    </mxGraphModel>
  </diagram>
</mxfile>
